:SAMPLES-PER-SECOND 30
:FULLY-SPECIFIED
:DEGREES
149
root  -0.61381 37.6874 -14.7597 -17.9258 65.3013 -15.3094
RightUpLeg  -24.6747 -14.6893 8.11216
RightLeg  32.566 -4.56041 -3.3952
RightFoot  -3.28711 0.469416 -6.97217
RightToes  0.000482159 0.542163 -0.142577
Spine  14.1523 -4.00508 14.439
Spine1  10.9511 -1.68889 0.00468595
HEad  -2.55051 7.95979 -8.99647
LeftShoulder1  9.17373 -13.7411 -46.4065
LeftArm  -11.0028 16.3062 -23.5752
LeftForeArm  67.4588 -79.1527 -81.4316
LeftHand  -0.25398 0.0180481 5.50724
RightShoulder  4.71693 8.54604 33.2027
RightArm  -16.9279 -27.5312 24.3307
RightForeArm  61.8585 74.523 127.275
RightHand  1.20519 -13.186 -18.4914
LeftUpLeg  0.272961 1.78523 10.049
LeftLeg  62.9171 2.6453 6.19146
LeftFoot  14.8904 1.07774 -4.96862
LeftToes  1.06245e-005 4.65856e-005 -8.18503e-006
150
root  0.875706 38.2271 -13.7359 -16.7239 65.557 -14.3741
RightUpLeg  -21.1641 -15.5024 7.43564
RightLeg  31.4131 -4.15585 -2.99496
RightFoot  -5.55278 0.300714 -6.65975
RightToes  0.000482159 0.542163 -0.142577
Spine  13.7414 -3.15619 14.5201
Spine1  11.2364 -0.693338 -0.702118
HEad  -1.34689 6.49333 -8.19765
LeftShoulder1  9.19557 -13.7551 -46.4812
LeftArm  -11.2672 16.1392 -23.5325
LeftForeArm  62.7131 -78.9814 -76.6549
LeftHand  -0.25398 0.0180481 5.50724
RightShoulder  4.73606 8.55775 33.3229
RightArm  -15.9737 -26.5473 24.2645
RightForeArm  57.2906 75.2436 123.227
RightHand  1.10085 -12.2862 -19.0896
LeftUpLeg  -6.6353 2.47299 8.96934
LeftLeg  66.3828 2.3532 6.60608
LeftFoot  9.83951 0.538799 -3.21847
LeftToes  1.06245e-005 4.65856e-005 -8.18503e-006
151
root  2.34871 38.7264 -12.7114 -13.6088 66.1107 -11.5563
RightUpLeg  -17.5035 -17.0715 5.89757
RightLeg  29.5232 -3.12753 -2.19905
RightFoot  -7.80137 0.132903 -5.98776
RightToes  0.000482159 0.542163 -0.142577
Spine  13.22 -2.30735 12.9258
Spine1  11.2306 -0.142599 -0.588768
HEad  -0.0964597 5.72058 -7.97818
LeftShoulder1  9.15861 -13.6451 -46.594
LeftArm  -12.1327 16.6664 -23.4323
LeftForeArm  60.7654 -78.886 -74.696
LeftHand  -0.25398 0.0180481 5.50724
RightShoulder  4.74696 8.61211 33.2371
RightArm  -14.7548 -25.1428 24.4962
RightForeArm  51.5306 75.9959 117.986
RightHand  1.17139 -12.6933 -19.1532
LeftUpLeg  -13.0406 3.2295 6.85662
LeftLeg  65.7905 2.35693 6.43418
LeftFoot  5.59989 0.293208 -2.20952
LeftToes  1.06245e-005 4.65856e-005 -8.18503e-006
152
root  3.84155 39.1765 -11.6881 -11.5754 67.3032 -9.79491
RightUpLeg  -13.2607 -19.5686 4.45238
RightLeg  26.8091 -1.90961 -1.16313
RightFoot  -9.43321 0.0280894 -5.55734
RightToes  0.000482159 0.542163 -0.142577
Spine  12.8094 -1.85162 11.6655
Spine1  10.764 0.0168844 -0.696753
HEad  1.24215 5.09933 -7.92585
LeftShoulder1  9.10226 -13.5973 -46.4327
LeftArm  -13.0762 17.3926 -23.4383
LeftForeArm  60.2821 -78.8589 -74.0916
LeftHand  -0.25398 0.0180481 5.50724
RightShoulder  4.73476 8.63592 33.0604
RightArm  -13.5941 -24.1712 24.8812
RightForeArm  47.074 76.4501 113.962
RightHand  1.26781 -13.349 -18.9875
LeftUpLeg  -18.5372 3.33634 5.00467
LeftLeg  61.9671 3.07537 6.82491
LeftFoot  3.30295 0.093714 -0.878858
LeftToes  1.06245e-005 4.65856e-005 -8.18503e-006
153
root  5.34955 39.5115 -10.7196 -9.66484 68.3505 -9.13618
RightUpLeg  -10.1776 -20.0185 3.42141
RightLeg  24.4277 -2.71727 -0.266984
RightFoot  -10.5466 -0.031149 -5.87737
RightToes  0.000482159 0.542163 -0.142577
Spine  10.8606 -1.2564 11.6646
Spine1  10.8856 0.479374 -1.69357
HEad  2.55816 4.22204 -7.67426
LeftShoulder1  9.03871 -13.652 -45.9472
LeftArm  -13.7544 17.8764 -23.6107
LeftForeArm  60.2293 -78.8539 -73.8121
LeftHand  -0.25398 0.0180481 5.50724
RightShoulder  4.73062 8.64466 32.9985
RightArm  -12.5346 -23.8575 25.1208
RightForeArm  44.7794 76.649 111.869
RightHand  1.1009 -12.172 -19.417
LeftUpLeg  -23.5316 3.98144 3.41314
LeftLeg  54.9588 4.34516 7.13172
LeftFoot  0.673335 -0.0628423 0.563159
LeftToes  1.06245e-005 4.65856e-005 -8.18503e-006
154
root  6.84353 39.6544 -9.79184 -9.24709 68.7556 -9.91988
RightUpLeg  -7.08361 -17.0966 2.95088
RightLeg  22.2704 -6.31114 0.441537
RightFoot  -12.0463 -0.116138 -5.92786
RightToes  0.000482159 0.542163 -0.142577
Spine  9.06112 -0.515664 12.5141
Spine1  11.2517 1.25832 -2.91688
HEad  3.35904 3.28454 -7.30543
LeftShoulder1  8.94633 -13.6473 -45.4741
LeftArm  -14.2813 17.9663 -23.7505
LeftForeArm  60.8728 -78.8874 -74.2899
LeftHand  -0.25398 0.0180481 5.50724
RightShoulder  4.73626 8.66122 32.9918
RightArm  -11.5053 -23.5469 25.1888
RightForeArm  43.2614 76.7724 110.444
RightHand  0.736632 -9.71994 -20.4861
LeftUpLeg  -26.6673 5.88256 2.28906
LeftLeg  44.5194 5.33935 6.00863
LeftFoot  -1.98222 -0.0965848 1.30319
LeftToes  1.06245e-005 4.65856e-005 -8.18503e-006
155
root  8.32557 39.7288 -8.86471 -8.61598 68.7739 -10.1231
RightUpLeg  -3.27182 -12.9178 2.71026
RightLeg  18.9221 -10.2915 1.23104
RightFoot  -13.2634 -0.171739 -4.87045
RightToes  0.000482159 0.542163 -0.142577
Spine  7.90045 0.252915 12.7046
Spine1  11.7859 2.10312 -4.13087
HEad  3.47214 2.54667 -6.92984
LeftShoulder1  8.81681 -13.5222 -45.132
LeftArm  -14.8015 17.8284 -23.7515
LeftForeArm  62.2504 -78.9577 -75.6525
LeftHand  -0.25398 0.0180481 5.50724
RightShoulder  4.75138 8.70919 32.963
RightArm  -10.7157 -22.9048 25.3109
RightForeArm  41.8944 76.8731 109.184
RightHand  0.542028 -8.47223 -21.2852
LeftUpLeg  -27.9164 10.1981 0.198297
LeftLeg  30.627 5.69969 4.31957
LeftFoot  -2.64461 -0.0663114 1.08664
LeftToes  1.06245e-005 4.65856e-005 -8.18503e-006
156
root  9.81557 39.7491 -7.96109 -8.03082 68.4317 -9.90012
RightUpLeg  0.666674 -10.0812 2.82176
RightLeg  15.7875 -12.6475 1.84817
RightFoot  -13.786 -0.185174 -4.25607
RightToes  0.000482159 0.542163 -0.142577
Spine  7.54899 0.807786 12.74
Spine1  12.2775 3.0353 -5.56233
HEad  3.50694 2.13585 -6.54678
LeftShoulder1  8.66043 -13.4105 -44.6024
LeftArm  -15.3274 17.9444 -23.8656
LeftForeArm  63.5351 -79.017 -76.9899
LeftHand  -0.25398 0.0180481 5.50724
RightShoulder  4.82831 8.86871 33.0821
RightArm  -10.2391 -22.1341 25.447
RightForeArm  40.8011 76.9442 108.222
RightHand  0.623183 -8.90191 -21.3945
LeftUpLeg  -26.7668 14.513 -1.52325
LeftLeg  14.7369 9.49287 1.29585
LeftFoot  -2.59002 -0.0237933 0.516968
LeftToes  1.06245e-005 4.65856e-005 -8.18503e-006
